<svg width="23" height="24" viewBox="0 0 23 24" fill="none" xmlns="http://www.w3.org/2000/svg">
<rect width="22.1892" height="24" transform="translate(0.71875)" fill="white"/>
<path fill-rule="evenodd" clip-rule="evenodd" d="M6.88255 8.00033C6.88255 12.4448 11.8135 16.4448 11.8135 16.4448C11.8135 16.4448 16.7444 12.4448 16.7444 8.00033C16.7444 5.05481 14.5368 2.66699 11.8135 2.66699C9.0902 2.66699 6.88255 5.05481 6.88255 8.00033ZM11.8135 18.0004C11.8141 18.0004 11.803 17.9919 11.7811 17.9752C11.5332 17.7868 9.90698 16.5503 8.3917 14.667H6.27999C5.86652 14.667 5.48058 14.8912 5.25225 15.264L1.98624 20.5974C1.85255 20.8157 1.78125 21.0718 1.78125 21.3337C1.78125 22.0701 2.33316 22.667 3.01398 22.667H20.5991C20.8433 22.667 21.082 22.5885 21.285 22.4415C21.8507 22.0319 22.0022 21.2037 21.6234 20.5918L18.3216 15.2585C18.0928 14.8888 17.7086 14.667 17.2973 14.667H15.2353C13.72 16.5503 12.0937 17.7868 11.8459 17.9752C11.824 17.9919 11.8128 18.0004 11.8135 18.0004ZM6.88255 21.3337V20.0004H16.7444V21.3337H6.88255ZM11.8135 10.0003C12.8347 10.0003 13.6626 9.1049 13.6626 8.00033C13.6626 6.89576 12.8347 6.00033 11.8135 6.00033C10.7923 6.00033 9.96438 6.89576 9.96438 8.00033C9.96438 9.1049 10.7923 10.0003 11.8135 10.0003Z" fill="#616164"/>
</svg>
